<svg xmlns="http://www.w3.org/2000/svg" viewBox="0 0 1500 1500">
  <g clip-path="url(#revora-mark-a)">
    <path
      fill="currentColor"
      d="M 910.527344 988.746094 C 998.988281 964.828125 1070.683594 927.1875 1125.519531 875.9375 C 1180.3125 824.679688 1207.75 758.359375 1207.75 676.898438 L 1207.75 538.234375 L 898.625 538.816406 L 898.625 688.410156 C 898.625 731.523438 878.484375 765.996094 838.195312 791.875 C 797.917969 817.71875 740.136719 830.660156 664.816406 830.660156 L 600.421875 830.660156 L 600.421875 1031.460938 L 787.847656 1239.167969 L 1144.507812 1239.167969 L 910.527344 988.746094"
    />
  </g>
  <g clip-path="url(#revora-mark-b)">
    <path
      fill="currentColor"
      d="M 895.699219 536.332031 L 895.699219 260.917969 L 292.339844 260.917969 L 292.339844 826.222656 L 597.496094 826.222656 L 597.496094 536.332031 L 895.699219 536.332031"
    />
  </g>
  <defs>
    <clipPath id="revora-mark-a">
      <path d="M 600 538 L 1207.949219 538 L 1207.949219 1238.890625 L 600 1238.890625 Z" />
    </clipPath>
    <clipPath id="revora-mark-b">
      <path d="M 292.199219 260.890625 L 896 260.890625 L 896 827 L 292.199219 827 Z" />
    </clipPath>
  </defs>
</svg>